<svg xmlns="http://www.w3.org/2000/svg"
   xmlns:xlink="http://www.w3.org/1999/xlink"
   version="1.1"
   id="avrhwrng_v1rev3" width="100%" height="100%"  viewBox="-6 -6 1384 800">
<desc>
XCircuit Version 3.8
File "avrhwrng-v1rev3.ps" Page 1
</desc>
<g stroke="black">
<path d="M666,634 L650,634 " fill="none" stroke-width="2" stroke-linejoin="bevel" stroke-linecap="round" stroke="#000000" />
<path d="M666,586 L666,682 " fill="none" stroke-width="2" stroke-linejoin="bevel" stroke-linecap="round" stroke="#000000" />
<path d="M714,586 L666,612 " fill="none" stroke-width="2" stroke-linejoin="bevel" stroke-linecap="round" stroke="#000000" />
<path d="M714,586 L714,570 " fill="none" stroke-width="2" stroke-linejoin="bevel" stroke-linecap="round" stroke="#000000" />
<path d="M714,682 L666,656 " fill="none" stroke-width="2" stroke-linejoin="bevel" stroke-linecap="round" stroke="#000000" />
<path d="M714,682 L714,698 " fill="none" stroke-width="2" stroke-linejoin="bevel" stroke-linecap="round" stroke="#000000" />
<path d="M686,675 C697,676 700,677 714,682 C703,672 700,670 694,661 C692,667 690,671 686,675 " fill="#000000" stroke="none" />
<path d="M634,634 L650,634 " fill="none" stroke-width="2" stroke-linejoin="bevel" stroke-linecap="round" stroke="#000000" />
<path d="M634,682 L634,586 " fill="none" stroke-width="2" stroke-linejoin="bevel" stroke-linecap="round" stroke="#000000" />
<path d="M586,682 L634,656 " fill="none" stroke-width="2" stroke-linejoin="bevel" stroke-linecap="round" stroke="#000000" />
<path d="M586,682 L586,698 " fill="none" stroke-width="2" stroke-linejoin="bevel" stroke-linecap="round" stroke="#000000" />
<path d="M586,586 L634,612 " fill="none" stroke-width="2" stroke-linejoin="bevel" stroke-linecap="round" stroke="#000000" />
<path d="M586,586 L586,570 " fill="none" stroke-width="2" stroke-linejoin="bevel" stroke-linecap="round" stroke="#000000" />
<path d="M614,593 C603,592 600,591 586,586 C597,596 600,598 606,607 C608,601 610,597 614,593 " fill="#000000" stroke="none" />
<path d="M586,570 L714,570 " fill="none" stroke-width="2" stroke-linejoin="bevel" stroke-linecap="round" stroke="#000000" />
<path d="M714,698 L714,730 " fill="none" stroke-width="2" stroke-linejoin="bevel" stroke-linecap="round" stroke="#000000" />
<path d="M682,730 L746,730 " fill="none" stroke-width="2" stroke-linejoin="bevel" stroke-linecap="round" stroke="#000000" />
<path d="M696,744 L732,744 " fill="none" stroke-width="2" stroke-linejoin="bevel" stroke-linecap="round" stroke="#000000" />
<path d="M710,758 L718,758 " fill="none" stroke-width="2" stroke-linejoin="bevel" stroke-linecap="round" stroke="#000000" />
<path d="M650,378 L650,406 " fill="none" stroke-width="2" stroke-linejoin="bevel" stroke-linecap="round" stroke="#000000" />
<path d="M650,506 L650,478 " fill="none" stroke-width="2" stroke-linejoin="bevel" stroke-linecap="round" stroke="#000000" />
<path d="M650,478 L664,472 636,460 664,448 636,436 664,424 636,412 650,406 " fill="none" stroke-width="2" stroke-linejoin="bevel" stroke-linecap="round" stroke="#000000" />
<ellipse cx="650" cy="538" rx="6" ry="6" fill="#000000" stroke="none" />
<path d="M650,506 L650,570 " fill="none" stroke-width="2" stroke-linejoin="bevel" stroke-linecap="round" stroke="#000000" />
<path d="M682,538 L740,538 " fill="none" stroke-width="2" stroke-linejoin="bevel" stroke-linecap="round" stroke="#000000" />
<path d="M810,538 L752,538 " fill="none" stroke-width="2" stroke-linejoin="bevel" stroke-linecap="round" stroke="#000000" />
<path d="M752,506 L752,570 " fill="none" stroke-width="2" stroke-linejoin="bevel" stroke-linecap="round" stroke="#000000" />
<path d="M740,506 L740,570 " fill="none" stroke-width="2" stroke-linejoin="bevel" stroke-linecap="round" stroke="#000000" />
<path d="M650,538 L682,538 " fill="none" stroke-width="2" stroke-linejoin="bevel" stroke-linecap="round" stroke="#000000" />
<path d="M1224,634 L1240,634 " fill="none" stroke-width="2" stroke-linejoin="bevel" stroke-linecap="round" stroke="#000000" />
<path d="M1224,586 L1224,682 " fill="none" stroke-width="2" stroke-linejoin="bevel" stroke-linecap="round" stroke="#000000" />
<path d="M1176,586 L1224,612 " fill="none" stroke-width="2" stroke-linejoin="bevel" stroke-linecap="round" stroke="#000000" />
<path d="M1176,586 L1176,570 " fill="none" stroke-width="2" stroke-linejoin="bevel" stroke-linecap="round" stroke="#000000" />
<path d="M1176,682 L1224,656 " fill="none" stroke-width="2" stroke-linejoin="bevel" stroke-linecap="round" stroke="#000000" />
<path d="M1176,682 L1176,698 " fill="none" stroke-width="2" stroke-linejoin="bevel" stroke-linecap="round" stroke="#000000" />
<path d="M1204,675 C1193,676 1190,677 1176,682 C1187,672 1190,670 1196,661 C1198,667 1200,671 1204,675 " fill="#000000" stroke="none" />
<path d="M1256,634 L1240,634 " fill="none" stroke-width="2" stroke-linejoin="bevel" stroke-linecap="round" stroke="#000000" />
<path d="M1256,682 L1256,586 " fill="none" stroke-width="2" stroke-linejoin="bevel" stroke-linecap="round" stroke="#000000" />
<path d="M1304,682 L1256,656 " fill="none" stroke-width="2" stroke-linejoin="bevel" stroke-linecap="round" stroke="#000000" />
<path d="M1304,682 L1304,698 " fill="none" stroke-width="2" stroke-linejoin="bevel" stroke-linecap="round" stroke="#000000" />
<path d="M1304,586 L1256,612 " fill="none" stroke-width="2" stroke-linejoin="bevel" stroke-linecap="round" stroke="#000000" />
<path d="M1304,586 L1304,570 " fill="none" stroke-width="2" stroke-linejoin="bevel" stroke-linecap="round" stroke="#000000" />
<path d="M1276,593 C1287,592 1290,591 1304,586 C1293,596 1290,598 1284,607 C1282,601 1280,597 1276,593 " fill="#000000" stroke="none" />
<path d="M1304,570 L1176,570 " fill="none" stroke-width="2" stroke-linejoin="bevel" stroke-linecap="round" stroke="#000000" />
<path d="M1176,698 L1176,730 " fill="none" stroke-width="2" stroke-linejoin="bevel" stroke-linecap="round" stroke="#000000" />
<path d="M1208,730 L1144,730 " fill="none" stroke-width="2" stroke-linejoin="bevel" stroke-linecap="round" stroke="#000000" />
<path d="M1194,744 L1158,744 " fill="none" stroke-width="2" stroke-linejoin="bevel" stroke-linecap="round" stroke="#000000" />
<path d="M1180,758 L1172,758 " fill="none" stroke-width="2" stroke-linejoin="bevel" stroke-linecap="round" stroke="#000000" />
<path d="M1240,378 L1240,406 " fill="none" stroke-width="2" stroke-linejoin="bevel" stroke-linecap="round" stroke="#000000" />
<path d="M1240,506 L1240,478 " fill="none" stroke-width="2" stroke-linejoin="bevel" stroke-linecap="round" stroke="#000000" />
<path d="M1240,478 L1226,472 1254,460 1226,448 1254,436 1226,424 1254,412 1240,406 " fill="none" stroke-width="2" stroke-linejoin="bevel" stroke-linecap="round" stroke="#000000" />
<ellipse cx="1240" cy="538" rx="6" ry="6" fill="#000000" stroke="none" />
<path d="M1240,506 L1240,570 " fill="none" stroke-width="2" stroke-linejoin="bevel" stroke-linecap="round" stroke="#000000" />
<path d="M1080,538 L1138,538 " fill="none" stroke-width="2" stroke-linejoin="bevel" stroke-linecap="round" stroke="#000000" />
<path d="M1208,538 L1150,538 " fill="none" stroke-width="2" stroke-linejoin="bevel" stroke-linecap="round" stroke="#000000" />
<path d="M1150,570 L1150,506 " fill="none" stroke-width="2" stroke-linejoin="bevel" stroke-linecap="round" stroke="#000000" />
<path d="M1138,570 L1138,506 " fill="none" stroke-width="2" stroke-linejoin="bevel" stroke-linecap="round" stroke="#000000" />
<path d="M1240,538 L1208,538 " fill="none" stroke-width="2" stroke-linejoin="bevel" stroke-linecap="round" stroke="#000000" />
<path d="M810,378 L810,406 " fill="none" stroke-width="2" stroke-linejoin="bevel" stroke-linecap="round" stroke="#000000" />
<path d="M810,506 L810,478 " fill="none" stroke-width="2" stroke-linejoin="bevel" stroke-linecap="round" stroke="#000000" />
<path d="M810,478 L824,472 796,460 824,448 796,436 824,424 796,412 810,406 " fill="none" stroke-width="2" stroke-linejoin="bevel" stroke-linecap="round" stroke="#000000" />
<path d="M1082,378 L1082,406 " fill="none" stroke-width="2" stroke-linejoin="bevel" stroke-linecap="round" stroke="#000000" />
<path d="M1082,506 L1082,478 " fill="none" stroke-width="2" stroke-linejoin="bevel" stroke-linecap="round" stroke="#000000" />
<path d="M1082,478 L1096,472 1068,460 1096,448 1068,436 1096,424 1068,412 1082,406 " fill="none" stroke-width="2" stroke-linejoin="bevel" stroke-linecap="round" stroke="#000000" />
<path d="M938,378 L938,406 " fill="none" stroke-width="2" stroke-linejoin="bevel" stroke-linecap="round" stroke="#000000" />
<path d="M938,506 L938,478 " fill="none" stroke-width="2" stroke-linejoin="bevel" stroke-linecap="round" stroke="#000000" />
<path d="M938,478 L952,472 924,460 952,448 924,436 952,424 924,412 938,406 " fill="none" stroke-width="2" stroke-linejoin="bevel" stroke-linecap="round" stroke="#000000" />
<path d="M938,250 L938,278 " fill="none" stroke-width="2" stroke-linejoin="bevel" stroke-linecap="round" stroke="#000000" />
<path d="M938,378 L938,350 " fill="none" stroke-width="2" stroke-linejoin="bevel" stroke-linecap="round" stroke="#000000" />
<path d="M938,350 L952,344 924,332 952,320 924,308 952,296 924,284 938,278 " fill="none" stroke-width="2" stroke-linejoin="bevel" stroke-linecap="round" stroke="#000000" />
<path d="M810,378 L1082,378 " fill="none" stroke-width="2" stroke-linejoin="bevel" stroke-linecap="round" stroke="#000000" />
<path d="M938,506 L938,538 " fill="none" stroke-width="2" stroke-linejoin="bevel" stroke-linecap="round" stroke="#000000" />
<path d="M906,538 L970,538 " fill="none" stroke-width="2" stroke-linejoin="bevel" stroke-linecap="round" stroke="#000000" />
<path d="M920,552 L956,552 " fill="none" stroke-width="2" stroke-linejoin="bevel" stroke-linecap="round" stroke="#000000" />
<path d="M934,566 L942,566 " fill="none" stroke-width="2" stroke-linejoin="bevel" stroke-linecap="round" stroke="#000000" />
<path d="M986,506 L986,538 " fill="none" stroke-width="2" stroke-linejoin="bevel" stroke-linecap="round" stroke="#000000" />
<path d="M954,538 L1018,538 " fill="none" stroke-width="2" stroke-linejoin="bevel" stroke-linecap="round" stroke="#000000" />
<path d="M968,552 L1004,552 " fill="none" stroke-width="2" stroke-linejoin="bevel" stroke-linecap="round" stroke="#000000" />
<path d="M982,566 L990,566 " fill="none" stroke-width="2" stroke-linejoin="bevel" stroke-linecap="round" stroke="#000000" />
<path d="M1082,506 L1082,586 " fill="none" stroke-width="2" stroke-linejoin="bevel" stroke-linecap="round" stroke="#000000" />
<path d="M810,506 L810,586 " fill="none" stroke-width="2" stroke-linejoin="bevel" stroke-linecap="round" stroke="#000000" />
<g transform="matrix(   1    0   -0    1 650 362)" fill="#000000" >
<text stroke="none" font-family="Helvetica" font-size="40" ><tspan x="-35" y="0">Vnd</tspan>
</text></g>
<g transform="matrix(   1    0   -0    1 1242 362)" fill="#000000" >
<text stroke="none" font-family="Helvetica" font-size="40" ><tspan x="-35" y="0">Vnd</tspan>
</text></g>
<g transform="matrix(   1    0   -0    1 938 234)" fill="#000000" >
<text stroke="none" font-family="Helvetica" font-size="40" ><tspan x="-35" y="0">Vnd</tspan>
</text></g>
<g transform="matrix(   1    0   -0    1 1258 442)" fill="#000000" >
<text stroke="none" font-family="Helvetica" font-size="40" ><tspan x="0" y="0">10k</tspan>
</text></g>
<g transform="matrix(   1    0   -0    1 954 314)" fill="#000000" >
<text stroke="none" font-family="Helvetica" font-size="40" ><tspan x="0" y="0">10k</tspan>
</text></g>
<g transform="matrix(   1    0   -0    1 618 442)" fill="#000000" >
<text stroke="none" font-family="Helvetica" font-size="40" ><tspan x="-56" y="0">10k</tspan>
</text></g>
<g transform="matrix(   1    0   -0    1 794 442)" fill="#000000" >
<text stroke="none" font-family="Helvetica" font-size="40" ><tspan x="-65" y="0">47k</tspan>
</text></g>
<g transform="matrix(   1    0   -0    1 922 442)" fill="#000000" >
<text stroke="none" font-family="Helvetica" font-size="40" ><tspan x="-34" y="0">1k</tspan>
</text></g>
<g transform="matrix(   1    0   -0    1 1098 442)" fill="#000000" >
<text stroke="none" font-family="Helvetica" font-size="40" ><tspan x="0" y="0">47k</tspan>
</text></g>
<g transform="matrix(   1    0   -0    1 986 362)" fill="#000000" >
<text stroke="none" font-family="Helvetica" font-size="40" ><tspan x="-38" y="0">4.7u</tspan>
</text></g>
<g transform="matrix(   1    0   -0    1 810 618)" fill="#000000" >
<text stroke="none" font-family="Helvetica" font-size="40" ><tspan x="-48" y="0">AIN1/</tspan>
</text></g>
<g transform="matrix(   1    0   -0    1 810 650)" fill="#000000" >
<text stroke="none" font-family="Helvetica" font-size="40" ><tspan x="-37" y="0">PD7</tspan>
</text></g>
<g transform="matrix(   1    0   -0    1 1082 618)" fill="#000000" >
<text stroke="none" font-family="Helvetica" font-size="40" ><tspan x="-45" y="0">AIN0</tspan>
</text></g>
<g transform="matrix(   1    0   -0    1 1082 650)" fill="#000000" >
<text stroke="none" font-family="Helvetica" font-size="40" ><tspan x="-38" y="0">PD6</tspan>
</text></g>
<g transform="matrix(   1    0   -0    1 810 682)" fill="#000000" >
<text stroke="none" font-family="Helvetica" font-size="40" ><tspan x="-50" y="0">Dig. 7</tspan>
</text></g>
<g transform="matrix(   1    0   -0    1 1082 682)" fill="#000000" >
<text stroke="none" font-family="Helvetica" font-size="40" ><tspan x="-44" y="0">Dig.6</tspan>
</text></g>
<path d="M298,506 L298,448 " fill="none" stroke-width="2" stroke-linejoin="bevel" stroke-linecap="round" stroke="#000000" />
<path d="M298,378 L298,436 " fill="none" stroke-width="2" stroke-linejoin="bevel" stroke-linecap="round" stroke="#000000" />
<path d="M266,436 L330,436 " fill="none" stroke-width="2" stroke-linejoin="bevel" stroke-linecap="round" stroke="#000000" />
<path d="M266,448 L330,448 " fill="none" stroke-width="2" stroke-linejoin="bevel" stroke-linecap="round" stroke="#000000" />
<path d="M138,506 L138,448 " fill="none" stroke-width="2" stroke-linejoin="bevel" stroke-linecap="round" stroke="#000000" />
<path d="M138,378 L138,436 " fill="none" stroke-width="2" stroke-linejoin="bevel" stroke-linecap="round" stroke="#000000" />
<path d="M106,436 L170,436 " fill="none" stroke-width="2" stroke-linejoin="bevel" stroke-linecap="round" stroke="#000000" />
<path d="M106,448 L170,448 " fill="none" stroke-width="2" stroke-linejoin="bevel" stroke-linecap="round" stroke="#000000" />
<path d="M378,506 L378,448 " fill="none" stroke-width="2" stroke-linejoin="bevel" stroke-linecap="round" stroke="#000000" />
<path d="M378,378 L378,436 " fill="none" stroke-width="2" stroke-linejoin="bevel" stroke-linecap="round" stroke="#000000" />
<path d="M346,436 L410,436 " fill="none" stroke-width="2" stroke-linejoin="bevel" stroke-linecap="round" stroke="#000000" />
<path d="M408,454 A74,74 0 0,0 348,454 " fill="none" stroke-width="2" stroke-linejoin="bevel" stroke-linecap="round" stroke="#000000" />
<path d="M74,378 L154,378 " fill="none" stroke-width="2" stroke-linejoin="bevel" stroke-linecap="round" stroke="#000000" />
<path d="M266,378 L426,378 " fill="none" stroke-width="2" stroke-linejoin="bevel" stroke-linecap="round" stroke="#000000" />
<path d="M138,474 L138,506 " fill="none" stroke-width="2" stroke-linejoin="bevel" stroke-linecap="round" stroke="#000000" />
<path d="M106,506 L170,506 " fill="none" stroke-width="2" stroke-linejoin="bevel" stroke-linecap="round" stroke="#000000" />
<path d="M120,520 L156,520 " fill="none" stroke-width="2" stroke-linejoin="bevel" stroke-linecap="round" stroke="#000000" />
<path d="M134,534 L142,534 " fill="none" stroke-width="2" stroke-linejoin="bevel" stroke-linecap="round" stroke="#000000" />
<path d="M298,474 L298,506 " fill="none" stroke-width="2" stroke-linejoin="bevel" stroke-linecap="round" stroke="#000000" />
<path d="M266,506 L330,506 " fill="none" stroke-width="2" stroke-linejoin="bevel" stroke-linecap="round" stroke="#000000" />
<path d="M280,520 L316,520 " fill="none" stroke-width="2" stroke-linejoin="bevel" stroke-linecap="round" stroke="#000000" />
<path d="M294,534 L302,534 " fill="none" stroke-width="2" stroke-linejoin="bevel" stroke-linecap="round" stroke="#000000" />
<path d="M378,474 L378,506 " fill="none" stroke-width="2" stroke-linejoin="bevel" stroke-linecap="round" stroke="#000000" />
<path d="M346,506 L410,506 " fill="none" stroke-width="2" stroke-linejoin="bevel" stroke-linecap="round" stroke="#000000" />
<path d="M360,520 L396,520 " fill="none" stroke-width="2" stroke-linejoin="bevel" stroke-linecap="round" stroke="#000000" />
<path d="M374,534 L382,534 " fill="none" stroke-width="2" stroke-linejoin="bevel" stroke-linecap="round" stroke="#000000" />
<g transform="matrix(   1    0   -0    1 394 426)" fill="#000000" >
<text stroke="none" font-family="Helvetica" font-size="40" ><tspan x="0" y="0">+</tspan>
</text></g>
<g transform="matrix(   1    0   -0    1 394 570)" fill="#000000" >
<text stroke="none" font-family="Helvetica" font-size="40" ><tspan x="-39" y="0">100u</tspan>
</text></g>
<g transform="matrix(   1    0   -0    1 298 570)" fill="#000000" >
<text stroke="none" font-family="Helvetica" font-size="40" ><tspan x="-39" y="0">100n</tspan>
</text></g>
<g transform="matrix(   1    0   -0    1 138 570)" fill="#000000" >
<text stroke="none" font-family="Helvetica" font-size="40" ><tspan x="-39" y="0">100n</tspan>
</text></g>
<g transform="matrix(   1    0   -0    1 218 346)" fill="#000000" >
<text stroke="none" font-family="Helvetica" font-size="40" ><tspan x="-23" y="0">22</tspan>
</text></g>
<ellipse cx="378" cy="378" rx="6" ry="6" fill="#000000" stroke="none" />
<ellipse cx="298" cy="378" rx="6" ry="6" fill="#000000" stroke="none" />
<ellipse cx="938" cy="378" rx="6" ry="6" fill="#000000" stroke="none" />
<ellipse cx="986" cy="378" rx="6" ry="6" fill="#000000" stroke="none" />
<ellipse cx="1082" cy="538" rx="6" ry="6" fill="#000000" stroke="none" />
<ellipse cx="810" cy="538" rx="6" ry="6" fill="#000000" stroke="none" />
<ellipse cx="138" cy="378" rx="6" ry="6" fill="#000000" stroke="none" />
<g transform="matrix(   1    0   -0    1 442 378)" fill="#000000" >
<text stroke="none" font-family="Helvetica" font-size="40" ><tspan x="0" y="0">Vnd</tspan>
</text></g>
<g transform="matrix(   1    0   -0    1  58 378)" fill="#000000" >
<text stroke="none" font-family="Helvetica" font-size="40" ><tspan x="-58" y="0">Vin</tspan>
</text></g>
<g transform="matrix(   1    0   -0    1 666 794)" fill="#000000" >
<text stroke="none" font-family="Helvetica" font-size="40" ><tspan x="-136" y="0">2SC1815-Y x 2</tspan>
</text></g>
<g transform="matrix(   1    0   -0    1 1242 794)" fill="#000000" >
<text stroke="none" font-family="Helvetica" font-size="40" ><tspan x="-136" y="0">2SC1815-Y x 2</tspan>
</text></g>
<g transform="matrix(   1    0   -0    1  42  26)" fill="#000000" >
<text stroke="none" font-family="Helvetica" font-size="40" ><tspan x="0" y="0">avrhwrng: Arduino 2009/UNO shield schematics</tspan>
</text></g>
<g transform="matrix(   1    0   -0    1  42  74)" fill="#000000" >
<text stroke="none" font-family="Helvetica" font-size="40" ><tspan x="0" y="0">for a hardware random number generator</tspan>
</text></g>
<g transform="matrix(   1    0   -0    1  42 122)" fill="#000000" >
<text stroke="none" font-family="Helvetica" font-size="40" ><tspan x="0" y="0">by Kenji Rikitake / v1rev3 / 13-AUG-2015</tspan>
</text></g>
<g transform="matrix(   1    0   -0    1  42 186)" fill="#000000" >
<text stroke="none" font-family="Helvetica" font-size="40" ><tspan x="0" y="0">Vin = +12V or +13.8V (+9V didn't work)</tspan>
</text></g>
<g transform="matrix(   1    0   -0    1 746 490)" fill="#000000" >
<text stroke="none" font-family="Helvetica" font-size="40" ><tspan x="-43" y="0">560n</tspan>
</text></g>
<g transform="matrix(   1    0   -0    1 1146 490)" fill="#000000" >
<text stroke="none" font-family="Helvetica" font-size="40" ><tspan x="-43" y="0">560n</tspan>
</text></g>
<g transform="matrix(   1    0   -0    1  42 618)" fill="#000000" >
<text stroke="none" font-family="Helvetica" font-size="40" ><tspan x="0" y="0">100nF: 50V layered ceramic</tspan>
</text></g>
<g transform="matrix(   1    0   -0    1  42 666)" fill="#000000" >
<text stroke="none" font-family="Helvetica" font-size="40" ><tspan x="0" y="0">560nF: 50V film</tspan>
</text></g>
<g transform="matrix(   1    0   -0    1  42 762)" fill="#000000" >
<text stroke="none" font-family="Helvetica" font-size="40" ><tspan x="0" y="0">100uF: 50V electrolytic</tspan>
</text></g>
<path d="M282,378 L254,378 " fill="none" stroke-width="2" stroke-linejoin="bevel" stroke-linecap="round" stroke="#000000" />
<path d="M154,378 L182,378 " fill="none" stroke-width="2" stroke-linejoin="bevel" stroke-linecap="round" stroke="#000000" />
<path d="M182,378 L188,364 200,392 212,364 224,392 236,364 248,392 254,378 " fill="none" stroke-width="2" stroke-linejoin="bevel" stroke-linecap="round" stroke="#000000" />
<path d="M986,506 L986,448 " fill="none" stroke-width="2" stroke-linejoin="bevel" stroke-linecap="round" stroke="#000000" />
<path d="M986,378 L986,436 " fill="none" stroke-width="2" stroke-linejoin="bevel" stroke-linecap="round" stroke="#000000" />
<path d="M954,436 L1018,436 " fill="none" stroke-width="2" stroke-linejoin="bevel" stroke-linecap="round" stroke="#000000" />
<path d="M954,448 L1018,448 " fill="none" stroke-width="2" stroke-linejoin="bevel" stroke-linecap="round" stroke="#000000" />
<g transform="matrix(   1    0   -0    1  42 714)" fill="#000000" >
<text stroke="none" font-family="Helvetica" font-size="40" ><tspan x="0" y="0">4.7uF: 16V layered ceramic</tspan>
</text></g>
</g>
</svg>
