<svg xmlns="http://www.w3.org/2000/svg"
   xmlns:xlink="http://www.w3.org/1999/xlink"
   version="1.1"
   id="avrhwrng_v1amp" width="100%" height="100%"  viewBox="-6 -6 1440 854">
<desc>
XCircuit Version 3.8
File "avrhwrng-v1amp.ps" Page 1
</desc>
<g stroke="black">
<path d="M666,634 L650,634 " fill="none" stroke-width="2" stroke-linejoin="bevel" stroke-linecap="round" stroke="#000000" />
<path d="M666,586 L666,682 " fill="none" stroke-width="2" stroke-linejoin="bevel" stroke-linecap="round" stroke="#000000" />
<path d="M714,586 L666,612 " fill="none" stroke-width="2" stroke-linejoin="bevel" stroke-linecap="round" stroke="#000000" />
<path d="M714,586 L714,570 " fill="none" stroke-width="2" stroke-linejoin="bevel" stroke-linecap="round" stroke="#000000" />
<path d="M714,682 L666,656 " fill="none" stroke-width="2" stroke-linejoin="bevel" stroke-linecap="round" stroke="#000000" />
<path d="M714,682 L714,698 " fill="none" stroke-width="2" stroke-linejoin="bevel" stroke-linecap="round" stroke="#000000" />
<path d="M686,675 C697,676 700,677 714,682 C703,672 700,670 694,661 C692,667 690,671 686,675 " fill="#000000" stroke="none" />
<path d="M634,634 L650,634 " fill="none" stroke-width="2" stroke-linejoin="bevel" stroke-linecap="round" stroke="#000000" />
<path d="M634,682 L634,586 " fill="none" stroke-width="2" stroke-linejoin="bevel" stroke-linecap="round" stroke="#000000" />
<path d="M586,682 L634,656 " fill="none" stroke-width="2" stroke-linejoin="bevel" stroke-linecap="round" stroke="#000000" />
<path d="M586,682 L586,698 " fill="none" stroke-width="2" stroke-linejoin="bevel" stroke-linecap="round" stroke="#000000" />
<path d="M586,586 L634,612 " fill="none" stroke-width="2" stroke-linejoin="bevel" stroke-linecap="round" stroke="#000000" />
<path d="M586,586 L586,570 " fill="none" stroke-width="2" stroke-linejoin="bevel" stroke-linecap="round" stroke="#000000" />
<path d="M614,593 C603,592 600,591 586,586 C597,596 600,598 606,607 C608,601 610,597 614,593 " fill="#000000" stroke="none" />
<path d="M586,570 L714,570 " fill="none" stroke-width="2" stroke-linejoin="bevel" stroke-linecap="round" stroke="#000000" />
<path d="M714,698 L714,730 " fill="none" stroke-width="2" stroke-linejoin="bevel" stroke-linecap="round" stroke="#000000" />
<path d="M682,730 L746,730 " fill="none" stroke-width="2" stroke-linejoin="bevel" stroke-linecap="round" stroke="#000000" />
<path d="M696,744 L732,744 " fill="none" stroke-width="2" stroke-linejoin="bevel" stroke-linecap="round" stroke="#000000" />
<path d="M710,758 L718,758 " fill="none" stroke-width="2" stroke-linejoin="bevel" stroke-linecap="round" stroke="#000000" />
<path d="M650,346 L650,374 " fill="none" stroke-width="2" stroke-linejoin="bevel" stroke-linecap="round" stroke="#000000" />
<path d="M650,474 L650,446 " fill="none" stroke-width="2" stroke-linejoin="bevel" stroke-linecap="round" stroke="#000000" />
<path d="M650,446 L664,440 636,428 664,416 636,404 664,392 636,380 650,374 " fill="none" stroke-width="2" stroke-linejoin="bevel" stroke-linecap="round" stroke="#000000" />
<ellipse cx="650" cy="538" rx="6" ry="6" fill="#000000" stroke="none" />
<path d="M650,474 L650,538 " fill="none" stroke-width="2" stroke-linejoin="bevel" stroke-linecap="round" stroke="#000000" />
<path d="M682,538 L740,538 " fill="none" stroke-width="2" stroke-linejoin="bevel" stroke-linecap="round" stroke="#000000" />
<path d="M810,538 L752,538 " fill="none" stroke-width="2" stroke-linejoin="bevel" stroke-linecap="round" stroke="#000000" />
<path d="M752,506 L752,570 " fill="none" stroke-width="2" stroke-linejoin="bevel" stroke-linecap="round" stroke="#000000" />
<path d="M740,506 L740,570 " fill="none" stroke-width="2" stroke-linejoin="bevel" stroke-linecap="round" stroke="#000000" />
<path d="M650,538 L682,538 " fill="none" stroke-width="2" stroke-linejoin="bevel" stroke-linecap="round" stroke="#000000" />
<path d="M824,538 L808,538 " fill="none" stroke-width="2" stroke-linejoin="bevel" stroke-linecap="round" stroke="#000000" />
<path d="M824,490 L824,586 " fill="none" stroke-width="2" stroke-linejoin="bevel" stroke-linecap="round" stroke="#000000" />
<path d="M872,490 L824,516 " fill="none" stroke-width="2" stroke-linejoin="bevel" stroke-linecap="round" stroke="#000000" />
<path d="M872,490 L872,474 " fill="none" stroke-width="2" stroke-linejoin="bevel" stroke-linecap="round" stroke="#000000" />
<path d="M872,586 L824,560 " fill="none" stroke-width="2" stroke-linejoin="bevel" stroke-linecap="round" stroke="#000000" />
<path d="M872,586 L872,602 " fill="none" stroke-width="2" stroke-linejoin="bevel" stroke-linecap="round" stroke="#000000" />
<path d="M844,579 C855,580 858,581 872,586 C861,576 858,574 852,565 C850,571 848,575 844,579 " fill="#000000" stroke="none" />
<path d="M872,602 L872,634 " fill="none" stroke-width="2" stroke-linejoin="bevel" stroke-linecap="round" stroke="#000000" />
<path d="M904,634 L840,634 " fill="none" stroke-width="2" stroke-linejoin="bevel" stroke-linecap="round" stroke="#000000" />
<path d="M890,648 L854,648 " fill="none" stroke-width="2" stroke-linejoin="bevel" stroke-linecap="round" stroke="#000000" />
<path d="M876,662 L868,662 " fill="none" stroke-width="2" stroke-linejoin="bevel" stroke-linecap="round" stroke="#000000" />
<path d="M997,345 L939,345 " fill="none" stroke-width="2" stroke-linejoin="bevel" stroke-linecap="round" stroke="#000000" />
<path d="M869,345 L927,345 " fill="none" stroke-width="2" stroke-linejoin="bevel" stroke-linecap="round" stroke="#000000" />
<path d="M927,377 L927,313 " fill="none" stroke-width="2" stroke-linejoin="bevel" stroke-linecap="round" stroke="#000000" />
<path d="M939,377 L939,313 " fill="none" stroke-width="2" stroke-linejoin="bevel" stroke-linecap="round" stroke="#000000" />
<g transform="matrix(   1    0   -0    1 650 330)" fill="#000000" >
<text stroke="none" font-family="Helvetica" font-size="40" ><tspan x="-35" y="0">Vnd</tspan>
</text></g>
<g transform="matrix(   1    0   -0    1 618 410)" fill="#000000" >
<text stroke="none" font-family="Helvetica" font-size="40" ><tspan x="-56" y="0">10k</tspan>
</text></g>
<path d="M298,506 L298,448 " fill="none" stroke-width="2" stroke-linejoin="bevel" stroke-linecap="round" stroke="#000000" />
<path d="M298,378 L298,436 " fill="none" stroke-width="2" stroke-linejoin="bevel" stroke-linecap="round" stroke="#000000" />
<path d="M266,436 L330,436 " fill="none" stroke-width="2" stroke-linejoin="bevel" stroke-linecap="round" stroke="#000000" />
<path d="M266,448 L330,448 " fill="none" stroke-width="2" stroke-linejoin="bevel" stroke-linecap="round" stroke="#000000" />
<path d="M138,506 L138,448 " fill="none" stroke-width="2" stroke-linejoin="bevel" stroke-linecap="round" stroke="#000000" />
<path d="M138,378 L138,436 " fill="none" stroke-width="2" stroke-linejoin="bevel" stroke-linecap="round" stroke="#000000" />
<path d="M106,436 L170,436 " fill="none" stroke-width="2" stroke-linejoin="bevel" stroke-linecap="round" stroke="#000000" />
<path d="M106,448 L170,448 " fill="none" stroke-width="2" stroke-linejoin="bevel" stroke-linecap="round" stroke="#000000" />
<path d="M378,506 L378,448 " fill="none" stroke-width="2" stroke-linejoin="bevel" stroke-linecap="round" stroke="#000000" />
<path d="M378,378 L378,436 " fill="none" stroke-width="2" stroke-linejoin="bevel" stroke-linecap="round" stroke="#000000" />
<path d="M346,436 L410,436 " fill="none" stroke-width="2" stroke-linejoin="bevel" stroke-linecap="round" stroke="#000000" />
<path d="M408,454 A74,74 0 0,0 348,454 " fill="none" stroke-width="2" stroke-linejoin="bevel" stroke-linecap="round" stroke="#000000" />
<path d="M74,378 L154,378 " fill="none" stroke-width="2" stroke-linejoin="bevel" stroke-linecap="round" stroke="#000000" />
<path d="M266,378 L426,378 " fill="none" stroke-width="2" stroke-linejoin="bevel" stroke-linecap="round" stroke="#000000" />
<path d="M138,474 L138,506 " fill="none" stroke-width="2" stroke-linejoin="bevel" stroke-linecap="round" stroke="#000000" />
<path d="M106,506 L170,506 " fill="none" stroke-width="2" stroke-linejoin="bevel" stroke-linecap="round" stroke="#000000" />
<path d="M120,520 L156,520 " fill="none" stroke-width="2" stroke-linejoin="bevel" stroke-linecap="round" stroke="#000000" />
<path d="M134,534 L142,534 " fill="none" stroke-width="2" stroke-linejoin="bevel" stroke-linecap="round" stroke="#000000" />
<path d="M298,474 L298,506 " fill="none" stroke-width="2" stroke-linejoin="bevel" stroke-linecap="round" stroke="#000000" />
<path d="M266,506 L330,506 " fill="none" stroke-width="2" stroke-linejoin="bevel" stroke-linecap="round" stroke="#000000" />
<path d="M280,520 L316,520 " fill="none" stroke-width="2" stroke-linejoin="bevel" stroke-linecap="round" stroke="#000000" />
<path d="M294,534 L302,534 " fill="none" stroke-width="2" stroke-linejoin="bevel" stroke-linecap="round" stroke="#000000" />
<path d="M378,474 L378,506 " fill="none" stroke-width="2" stroke-linejoin="bevel" stroke-linecap="round" stroke="#000000" />
<path d="M346,506 L410,506 " fill="none" stroke-width="2" stroke-linejoin="bevel" stroke-linecap="round" stroke="#000000" />
<path d="M360,520 L396,520 " fill="none" stroke-width="2" stroke-linejoin="bevel" stroke-linecap="round" stroke="#000000" />
<path d="M374,534 L382,534 " fill="none" stroke-width="2" stroke-linejoin="bevel" stroke-linecap="round" stroke="#000000" />
<g transform="matrix(   1    0   -0    1 394 426)" fill="#000000" >
<text stroke="none" font-family="Helvetica" font-size="40" ><tspan x="0" y="0">+</tspan>
</text></g>
<g transform="matrix(   1    0   -0    1 394 570)" fill="#000000" >
<text stroke="none" font-family="Helvetica" font-size="40" ><tspan x="-39" y="0">100u</tspan>
</text></g>
<g transform="matrix(   1    0   -0    1 298 570)" fill="#000000" >
<text stroke="none" font-family="Helvetica" font-size="40" ><tspan x="-39" y="0">100n</tspan>
</text></g>
<g transform="matrix(   1    0   -0    1 138 570)" fill="#000000" >
<text stroke="none" font-family="Helvetica" font-size="40" ><tspan x="-39" y="0">100n</tspan>
</text></g>
<g transform="matrix(   1    0   -0    1 218 346)" fill="#000000" >
<text stroke="none" font-family="Helvetica" font-size="40" ><tspan x="-23" y="0">22</tspan>
</text></g>
<ellipse cx="378" cy="378" rx="6" ry="6" fill="#000000" stroke="none" />
<ellipse cx="298" cy="378" rx="6" ry="6" fill="#000000" stroke="none" />
<ellipse cx="810" cy="345" rx="6" ry="6" fill="#000000" stroke="none" />
<ellipse cx="810" cy="538" rx="6" ry="6" fill="#000000" stroke="none" />
<ellipse cx="138" cy="378" rx="6" ry="6" fill="#000000" stroke="none" />
<g transform="matrix(   1    0   -0    1 442 378)" fill="#000000" >
<text stroke="none" font-family="Helvetica" font-size="40" ><tspan x="0" y="0">Vnd</tspan>
</text></g>
<g transform="matrix(   1    0   -0    1  58 378)" fill="#000000" >
<text stroke="none" font-family="Helvetica" font-size="40" ><tspan x="-58" y="0">Vin</tspan>
</text></g>
<g transform="matrix(   1    0   -0    1 666 794)" fill="#000000" >
<text stroke="none" font-family="Helvetica" font-size="40" ><tspan x="-136" y="0">2SC1815-Y x 2</tspan>
</text></g>
<g transform="matrix(   1    0   -0    1 890 698)" fill="#000000" >
<text stroke="none" font-family="Helvetica" font-size="40" ><tspan x="-115" y="0">2SC1815-GR</tspan>
</text></g>
<g transform="matrix(   1    0   -0    1  42  26)" fill="#000000" >
<text stroke="none" font-family="Helvetica" font-size="40" ><tspan x="0" y="0">avrhwrng: Arduino 2009/UNO shield schematics</tspan>
</text></g>
<g transform="matrix(   1    0   -0    1  42  74)" fill="#000000" >
<text stroke="none" font-family="Helvetica" font-size="40" ><tspan x="0" y="0">for a hardware random number generator</tspan>
</text></g>
<g transform="matrix(   1    0   -0    1  42 122)" fill="#000000" >
<text stroke="none" font-family="Helvetica" font-size="40" ><tspan x="0" y="0">by Kenji Rikitake / v1amp / 13-SEP-2015</tspan>
</text></g>
<g transform="matrix(   1    0   -0    1  42 186)" fill="#000000" >
<text stroke="none" font-family="Helvetica" font-size="40" ><tspan x="0" y="0">Vin = +12V or +13.8V (+9V didn't work)</tspan>
</text></g>
<g transform="matrix(   1    0   -0    1 746 490)" fill="#000000" >
<text stroke="none" font-family="Helvetica" font-size="40" ><tspan x="-39" y="0">100n</tspan>
</text></g>
<g transform="matrix(   1    0   -0    1  40 670)" fill="#000000" >
<text stroke="none" font-family="Helvetica" font-size="40" ><tspan x="0" y="0">100nF: 50V layered ceramic</tspan>
</text></g>
<g transform="matrix(   1    0   -0    1  42 762)" fill="#000000" >
<text stroke="none" font-family="Helvetica" font-size="40" ><tspan x="0" y="0">100uF: 50V electrolytic</tspan>
</text></g>
<path d="M282,378 L254,378 " fill="none" stroke-width="2" stroke-linejoin="bevel" stroke-linecap="round" stroke="#000000" />
<path d="M154,378 L182,378 " fill="none" stroke-width="2" stroke-linejoin="bevel" stroke-linecap="round" stroke="#000000" />
<path d="M182,378 L188,364 200,392 212,364 224,392 236,364 248,392 254,378 " fill="none" stroke-width="2" stroke-linejoin="bevel" stroke-linecap="round" stroke="#000000" />
<g transform="matrix(   1    0   -0    1  42 714)" fill="#000000" >
<text stroke="none" font-family="Helvetica" font-size="40" ><tspan x="0" y="0">4.7uF: 16V layered ceramic</tspan>
</text></g>
<path d="M810,344 L810,372 " fill="none" stroke-width="2" stroke-linejoin="bevel" stroke-linecap="round" stroke="#000000" />
<path d="M810,472 L810,444 " fill="none" stroke-width="2" stroke-linejoin="bevel" stroke-linecap="round" stroke="#000000" />
<path d="M810,444 L796,438 824,426 796,414 824,402 796,390 824,378 810,372 " fill="none" stroke-width="2" stroke-linejoin="bevel" stroke-linecap="round" stroke="#000000" />
<path d="M872,346 L872,374 " fill="none" stroke-width="2" stroke-linejoin="bevel" stroke-linecap="round" stroke="#000000" />
<path d="M872,474 L872,446 " fill="none" stroke-width="2" stroke-linejoin="bevel" stroke-linecap="round" stroke="#000000" />
<path d="M872,446 L858,440 886,428 858,416 886,404 858,392 886,380 872,374 " fill="none" stroke-width="2" stroke-linejoin="bevel" stroke-linecap="round" stroke="#000000" />
<path d="M871,345 L871,317 " fill="none" stroke-width="2" stroke-linejoin="bevel" stroke-linecap="round" stroke="#000000" />
<path d="M871,217 L871,245 " fill="none" stroke-width="2" stroke-linejoin="bevel" stroke-linecap="round" stroke="#000000" />
<path d="M871,245 L857,251 885,263 857,275 885,287 857,299 885,311 871,317 " fill="none" stroke-width="2" stroke-linejoin="bevel" stroke-linecap="round" stroke="#000000" />
<path d="M650,570 L650,538 " fill="none" stroke-width="2" stroke-linejoin="bevel" stroke-linecap="round" stroke="#000000" />
<path d="M810,474 L810,538 " fill="none" stroke-width="2" stroke-linejoin="bevel" stroke-linecap="round" stroke="#000000" />
<ellipse cx="872" cy="345" rx="6" ry="6" fill="#000000" stroke="none" />
<path d="M806,345 L869,345 " fill="none" stroke-width="2" stroke-linejoin="bevel" stroke-linecap="round" stroke="#000000" />
<path d="M998,344 L998,376 " fill="none" stroke-width="2" stroke-linejoin="bevel" stroke-linecap="round" stroke="#000000" />
<path d="M1030,376 L966,376 " fill="none" stroke-width="2" stroke-linejoin="bevel" stroke-linecap="round" stroke="#000000" />
<path d="M1016,390 L980,390 " fill="none" stroke-width="2" stroke-linejoin="bevel" stroke-linecap="round" stroke="#000000" />
<path d="M1002,404 L994,404 " fill="none" stroke-width="2" stroke-linejoin="bevel" stroke-linecap="round" stroke="#000000" />
<g transform="matrix(   1    0   -0    1 835 203)" fill="#000000" >
<text stroke="none" font-family="Helvetica" font-size="40" ><tspan x="0" y="0">+5V</tspan>
</text></g>
<ellipse cx="872" cy="473" rx="6" ry="6" fill="#000000" stroke="none" />
<path d="M873,474 L1001,474 " fill="none" stroke-width="2" stroke-linejoin="bevel" stroke-linecap="round" stroke="#000000" />
<g transform="matrix(   1    0   -0    1 706 419)" fill="#000000" >
<text stroke="none" font-family="Helvetica" font-size="40" ><tspan x="0" y="0">470k</tspan>
</text></g>
<g transform="matrix(   1    0   -0    1 896 417)" fill="#000000" >
<text stroke="none" font-family="Helvetica" font-size="40" ><tspan x="0" y="0">1k[1]</tspan>
</text></g>
<g transform="matrix(   1    0   -0    1 890 251)" fill="#000000" >
<text stroke="none" font-family="Helvetica" font-size="40" ><tspan x="0" y="0">100</tspan>
</text></g>
<g transform="matrix(   1    0   -0    1 898 304)" fill="#000000" >
<text stroke="none" font-family="Helvetica" font-size="40" ><tspan x="0" y="0">100n</tspan>
</text></g>
<g transform="matrix(   1    0   -0    1 1018 477)" fill="#000000" >
<text stroke="none" font-family="Helvetica" font-size="40" ><tspan x="0" y="0">AIN1/AIN0</tspan>
</text></g>
<g transform="matrix(   1    0   -0    1 1026 510)" fill="#000000" >
<text stroke="none" font-family="Helvetica" font-size="40" ><tspan x="0" y="0">PD7/PD6</tspan>
</text></g>
<g transform="matrix(   1    0   -0    1 1007 440)" fill="#000000" >
<text stroke="none" font-family="Helvetica" font-size="40" ><tspan x="0" y="0">(Two circuits required)</tspan>
</text></g>
<g transform="matrix(   1    0   -0    1 1248 451)" fill="#ff0000" >
<text stroke="none" font-family="Helvetica" font-size="40" ><tspan x="10" y="-10"></tspan>
</text></g>
<g transform="matrix(   1    0   -0    1 1029 565)" fill="#000000" >
<text stroke="none" font-family="Helvetica" font-size="40" ><tspan x="0" y="0">[1]: tuning needed</tspan>
</text></g>
<g transform="matrix(   1    0   -0    1 1036 612)" fill="#000000" >
<text stroke="none" font-family="Helvetica" font-size="40" ><tspan x="0" y="0">(output voltage: 2.5V)</tspan>
</text></g>
<g transform="matrix( 0.8    0   -0  0.8 1034 658)" fill="#000000" >
<text stroke="none" font-family="Helvetica" font-size="40" ><tspan x="0" y="0">(voltage difference between</tspan>
</text></g>
<g transform="matrix( 0.8    0   -0  0.8 1035 693)" fill="#000000" >
<text stroke="none" font-family="Helvetica" font-size="40" ><tspan x="0" y="0"> two pins must be <10mV)</tspan>
</text></g>
<g transform="matrix(   1    0   -0    1 538 842)" fill="#000000" >
<text stroke="none" font-family="Helvetica" font-size="40" ><tspan x="0" y="0">(The above circuit only shows one of the two)</tspan>
</text></g>
</g>
</svg>
